<svg width="176" height="42" viewBox="0 0 176 42" fill="none" xmlns="http://www.w3.org/2000/svg">
<path d="M22.0246 33.1115C22.0606 29.4401 21.1298 26.4545 19.9458 26.4429C18.7617 26.4314 17.7727 29.3983 17.7369 33.0696C17.701 36.7411 18.6318 39.7267 19.8158 39.7383C20.9998 39.7499 21.9888 36.783 22.0246 33.1115Z" fill="#640EF1"/>
<path d="M15.1576 32.2777C17.1728 29.2086 18.0041 26.1937 17.0144 25.5438C16.0245 24.8939 13.5884 26.855 11.5732 29.9241C9.55797 32.9933 8.72669 36.0081 9.71645 36.6581C10.7063 37.308 13.1423 35.3469 15.1576 32.2777Z" fill="#640EF1"/>
<path d="M9.82334 27.8744C13.1781 26.3822 15.5074 24.2955 15.0261 23.2136C14.5449 22.1316 11.4353 22.4643 8.08062 23.9565C4.72593 25.4487 2.39655 27.5354 2.87779 28.6173C3.35902 29.6992 6.46865 29.3666 9.82334 27.8744Z" fill="#640EF1"/>
<path d="M14.6235 20.1795C14.8037 19.0092 12.0079 17.6076 8.37911 17.0491C4.75022 16.4905 1.66243 16.9865 1.4823 18.1568C1.30217 19.3272 4.09791 20.7286 7.72678 21.2872C11.3556 21.8457 14.4434 21.3497 14.6235 20.1795Z" fill="#640EF1"/>
<path d="M15.9264 17.3917C16.7106 16.5045 15.116 13.8142 12.3649 11.3827C9.61375 8.9513 6.74784 7.6995 5.9637 8.58674C5.17956 9.47401 6.77412 12.1643 9.52527 14.5958C12.2764 17.0272 15.1423 18.279 15.9264 17.3917Z" fill="#640EF1"/>
<path d="M18.5211 15.7623C19.6605 15.4399 19.7737 12.3146 18.774 8.7817C17.7743 5.24883 16.0402 2.64624 14.9009 2.96865C13.7615 3.29106 13.6483 6.41637 14.648 9.94927C15.6477 13.4821 17.3818 16.0847 18.5211 15.7623Z" fill="#640EF1"/>
<path d="M25.5667 10.0592C26.6359 6.54673 26.5844 3.41979 25.4516 3.07498C24.3188 2.73017 22.5338 5.29805 21.4646 8.81053C20.3954 12.323 20.447 15.4499 21.5798 15.7947C22.7126 16.1395 24.4976 13.5717 25.5667 10.0592Z" fill="#640EF1"/>
<path d="M30.6011 14.8053C33.3993 12.4281 35.0462 9.76948 34.2795 8.8671C33.5128 7.9647 30.623 9.16028 27.8249 11.5374C25.0267 13.9146 23.3799 16.5732 24.1466 17.4756C24.9132 18.378 27.8031 17.1825 30.6011 14.8053Z" fill="#640EF1"/>
<path d="M32.2658 21.5215C35.905 21.0347 38.7278 19.6886 38.5707 18.5149C38.4138 17.3413 35.3363 16.7846 31.6971 17.2714C28.058 17.7583 25.2351 19.1043 25.3922 20.278C25.5492 21.4516 28.6266 22.0084 32.2658 21.5215Z" fill="#640EF1"/>
<path d="M36.9603 28.9528C37.4628 27.8806 35.175 25.7484 31.8504 24.1903C28.5258 22.6322 25.4234 22.2384 24.9209 23.3105C24.4184 24.3828 26.7062 26.515 30.0308 28.0731C33.3554 29.6311 36.4579 30.025 36.9603 28.9528Z" fill="#640EF1"/>
<path d="M29.9671 36.864C30.9695 36.2338 30.1978 33.203 28.2435 30.0948C26.2892 26.9866 23.8922 24.9778 22.8898 25.6081C21.8874 26.2383 22.6591 29.269 24.6134 32.3773C26.5678 35.4855 28.9647 37.4943 29.9671 36.864Z" fill="#640EF1"/>
<path d="M70.164 15.376L65.936 31H60.644L58.18 20.864L55.632 31H50.368L46.112 15.376H50.9L53.112 26.548L55.744 15.376H60.812L63.472 26.492L65.656 15.376H70.164ZM86.7179 22.936C86.7179 23.384 86.6899 23.8507 86.6339 24.336H75.7979C75.8726 25.3067 76.1806 26.0533 76.7219 26.576C77.2819 27.08 77.9632 27.332 78.7659 27.332C79.9606 27.332 80.7912 26.828 81.2579 25.82H86.3539C86.0926 26.8467 85.6166 27.7707 84.9259 28.592C84.2539 29.4133 83.4046 30.0573 82.3779 30.524C81.3512 30.9907 80.2032 31.224 78.9339 31.224C77.4032 31.224 76.0406 30.8973 74.8459 30.244C73.6512 29.5907 72.7179 28.6573 72.0459 27.444C71.3739 26.2307 71.0379 24.812 71.0379 23.188C71.0379 21.564 71.3646 20.1453 72.0179 18.932C72.6899 17.7187 73.6232 16.7853 74.8179 16.132C76.0126 15.4787 77.3846 15.152 78.9339 15.152C80.4459 15.152 81.7899 15.4693 82.9659 16.104C84.1419 16.7387 85.0566 17.644 85.7099 18.82C86.3819 19.996 86.7179 21.368 86.7179 22.936ZM81.8179 21.676C81.8179 20.8547 81.5379 20.2013 80.9779 19.716C80.4179 19.2307 79.7179 18.988 78.8779 18.988C78.0752 18.988 77.3939 19.2213 76.8339 19.688C76.2926 20.1547 75.9566 20.8173 75.8259 21.676H81.8179ZM95.5998 31.224C94.2371 31.224 93.0238 30.9907 91.9598 30.524C90.8958 30.0573 90.0558 29.4227 89.4398 28.62C88.8238 27.7987 88.4785 26.884 88.4038 25.876H93.1358C93.1918 26.4173 93.4438 26.856 93.8918 27.192C94.3398 27.528 94.8905 27.696 95.5438 27.696C96.1411 27.696 96.5985 27.584 96.9158 27.36C97.2518 27.1173 97.4198 26.8093 97.4198 26.436C97.4198 25.988 97.1865 25.6613 96.7198 25.456C96.2531 25.232 95.4971 24.9893 94.4518 24.728C93.3318 24.4667 92.3985 24.196 91.6518 23.916C90.9051 23.6173 90.2611 23.16 89.7198 22.544C89.1785 21.9093 88.9078 21.06 88.9078 19.996C88.9078 19.1 89.1505 18.288 89.6358 17.56C90.1398 16.8133 90.8678 16.2253 91.8198 15.796C92.7905 15.3667 93.9385 15.152 95.2638 15.152C97.2238 15.152 98.7638 15.6373 99.8838 16.608C101.022 17.5787 101.676 18.8667 101.844 20.472H97.4198C97.3451 19.9307 97.1025 19.5013 96.6918 19.184C96.2998 18.8667 95.7771 18.708 95.1238 18.708C94.5638 18.708 94.1345 18.82 93.8358 19.044C93.5371 19.2493 93.3878 19.5387 93.3878 19.912C93.3878 20.36 93.6211 20.696 94.0878 20.92C94.5731 21.144 95.3198 21.368 96.3278 21.592C97.4851 21.8907 98.4278 22.1893 99.1558 22.488C99.8838 22.768 100.518 23.2347 101.06 23.888C101.62 24.5227 101.909 25.3813 101.928 26.464C101.928 27.3787 101.666 28.2 101.144 28.928C100.64 29.6373 99.9025 30.1973 98.9318 30.608C97.9798 31.0187 96.8691 31.224 95.5998 31.224ZM119.585 22.936C119.585 23.384 119.557 23.8507 119.501 24.336H108.665C108.74 25.3067 109.048 26.0533 109.589 26.576C110.149 27.08 110.83 27.332 111.633 27.332C112.828 27.332 113.658 26.828 114.125 25.82H119.221C118.96 26.8467 118.484 27.7707 117.793 28.592C117.121 29.4133 116.272 30.0573 115.245 30.524C114.218 30.9907 113.07 31.224 111.801 31.224C110.27 31.224 108.908 30.8973 107.713 30.244C106.518 29.5907 105.585 28.6573 104.913 27.444C104.241 26.2307 103.905 24.812 103.905 23.188C103.905 21.564 104.232 20.1453 104.885 18.932C105.557 17.7187 106.49 16.7853 107.685 16.132C108.88 15.4787 110.252 15.152 111.801 15.152C113.313 15.152 114.657 15.4693 115.833 16.104C117.009 16.7387 117.924 17.644 118.577 18.82C119.249 19.996 119.585 21.368 119.585 22.936ZM114.685 21.676C114.685 20.8547 114.405 20.2013 113.845 19.716C113.285 19.2307 112.585 18.988 111.745 18.988C110.942 18.988 110.261 19.2213 109.701 19.688C109.16 20.1547 108.824 20.8173 108.693 21.676H114.685ZM126.899 17.98C127.459 17.1213 128.159 16.4493 128.999 15.964C129.839 15.46 130.772 15.208 131.799 15.208V20.276H130.483C129.288 20.276 128.392 20.5373 127.795 21.06C127.198 21.564 126.899 22.46 126.899 23.748V31H122.111V15.376H126.899V17.98ZM141.116 26.52L144.504 15.376H149.6L144.056 31H138.148L132.604 15.376H137.728L141.116 26.52ZM166.343 22.936C166.343 23.384 166.315 23.8507 166.259 24.336H155.423C155.498 25.3067 155.806 26.0533 156.347 26.576C156.907 27.08 157.588 27.332 158.391 27.332C159.586 27.332 160.416 26.828 160.883 25.82H165.979C165.718 26.8467 165.242 27.7707 164.551 28.592C163.879 29.4133 163.03 30.0573 162.003 30.524C160.976 30.9907 159.828 31.224 158.559 31.224C157.028 31.224 155.666 30.8973 154.471 30.244C153.276 29.5907 152.343 28.6573 151.671 27.444C150.999 26.2307 150.663 24.812 150.663 23.188C150.663 21.564 150.99 20.1453 151.643 18.932C152.315 17.7187 153.248 16.7853 154.443 16.132C155.638 15.4787 157.01 15.152 158.559 15.152C160.071 15.152 161.415 15.4693 162.591 16.104C163.767 16.7387 164.682 17.644 165.335 18.82C166.007 19.996 166.343 21.368 166.343 22.936ZM161.443 21.676C161.443 20.8547 161.163 20.2013 160.603 19.716C160.043 19.2307 159.343 18.988 158.503 18.988C157.7 18.988 157.019 19.2213 156.459 19.688C155.918 20.1547 155.582 20.8173 155.451 21.676H161.443ZM171.109 31.224C170.269 31.224 169.578 30.9813 169.037 30.496C168.514 29.992 168.253 29.376 168.253 28.648C168.253 27.9013 168.514 27.276 169.037 26.772C169.578 26.268 170.269 26.016 171.109 26.016C171.93 26.016 172.602 26.268 173.125 26.772C173.666 27.276 173.937 27.9013 173.937 28.648C173.937 29.376 173.666 29.992 173.125 30.496C172.602 30.9813 171.93 31.224 171.109 31.224Z" fill="white"/>
</svg>
